<mxfile host="65bd71144e">
    <diagram id="HC6ALHxcklFJfFHOFrwW" name="Page-1">
        <mxGraphModel dx="1558" dy="512" grid="0" gridSize="10" guides="1" tooltips="1" connect="1" arrows="1" fold="1" page="1" pageScale="1" pageWidth="827" pageHeight="1169" math="0" shadow="0">
            <root>
                <mxCell id="0"/>
                <mxCell id="1" parent="0"/>
                <mxCell id="13" style="edgeStyle=none;html=1;fontSize=21;" parent="1" source="3" target="9" edge="1">
                    <mxGeometry relative="1" as="geometry"/>
                </mxCell>
                <mxCell id="3" value="-10" style="ellipse;whiteSpace=wrap;html=1;aspect=fixed;strokeWidth=2;fontSize=21;" parent="1" vertex="1">
                    <mxGeometry x="146" y="49" width="80" height="80" as="geometry"/>
                </mxCell>
                <mxCell id="4" value="-10" style="rounded=0;whiteSpace=wrap;html=1;fontSize=20;" parent="1" vertex="1">
                    <mxGeometry x="414" y="250" width="60" height="60" as="geometry"/>
                </mxCell>
                <mxCell id="5" value="-3" style="rounded=0;whiteSpace=wrap;html=1;fontSize=20;" parent="1" vertex="1">
                    <mxGeometry x="474" y="250" width="60" height="60" as="geometry"/>
                </mxCell>
                <mxCell id="6" value="0" style="rounded=0;whiteSpace=wrap;html=1;fontSize=20;" parent="1" vertex="1">
                    <mxGeometry x="534" y="250" width="60" height="60" as="geometry"/>
                </mxCell>
                <mxCell id="7" value="5" style="rounded=0;whiteSpace=wrap;html=1;fontSize=20;" parent="1" vertex="1">
                    <mxGeometry x="594" y="250" width="60" height="60" as="geometry"/>
                </mxCell>
                <mxCell id="8" value="9" style="rounded=0;whiteSpace=wrap;html=1;fontSize=20;" parent="1" vertex="1">
                    <mxGeometry x="654" y="250" width="60" height="60" as="geometry"/>
                </mxCell>
                <mxCell id="14" style="edgeStyle=none;html=1;entryX=0;entryY=0;entryDx=0;entryDy=0;fontSize=21;" parent="1" source="9" target="10" edge="1">
                    <mxGeometry relative="1" as="geometry"/>
                </mxCell>
                <mxCell id="9" value="-3" style="ellipse;whiteSpace=wrap;html=1;aspect=fixed;strokeWidth=2;fontSize=21;" parent="1" vertex="1">
                    <mxGeometry x="206" y="150" width="80" height="80" as="geometry"/>
                </mxCell>
                <mxCell id="15" style="edgeStyle=none;html=1;entryX=0;entryY=0;entryDx=0;entryDy=0;fontSize=21;" parent="1" source="10" target="11" edge="1">
                    <mxGeometry relative="1" as="geometry"/>
                </mxCell>
                <mxCell id="10" value="0" style="ellipse;whiteSpace=wrap;html=1;aspect=fixed;strokeWidth=2;fontSize=21;" parent="1" vertex="1">
                    <mxGeometry x="267" y="243" width="80" height="80" as="geometry"/>
                </mxCell>
                <mxCell id="16" style="edgeStyle=none;html=1;entryX=0;entryY=0;entryDx=0;entryDy=0;fontSize=21;" parent="1" source="11" target="12" edge="1">
                    <mxGeometry relative="1" as="geometry"/>
                </mxCell>
                <mxCell id="11" value="5" style="ellipse;whiteSpace=wrap;html=1;aspect=fixed;strokeWidth=2;fontSize=21;" parent="1" vertex="1">
                    <mxGeometry x="325" y="336" width="80" height="80" as="geometry"/>
                </mxCell>
                <mxCell id="12" value="9" style="ellipse;whiteSpace=wrap;html=1;aspect=fixed;strokeWidth=2;fontSize=21;" parent="1" vertex="1">
                    <mxGeometry x="385" y="438" width="80" height="80" as="geometry"/>
                </mxCell>
                <mxCell id="17" value="-10" style="rounded=0;whiteSpace=wrap;html=1;fontSize=20;" parent="1" vertex="1">
                    <mxGeometry x="157" y="637" width="60" height="60" as="geometry"/>
                </mxCell>
                <mxCell id="18" value="-3" style="rounded=0;whiteSpace=wrap;html=1;fontSize=20;" parent="1" vertex="1">
                    <mxGeometry x="217" y="637" width="60" height="60" as="geometry"/>
                </mxCell>
                <mxCell id="19" value="0" style="rounded=0;whiteSpace=wrap;html=1;fontSize=20;fillColor=#fff2cc;strokeColor=#d6b656;" parent="1" vertex="1">
                    <mxGeometry x="277" y="637" width="60" height="60" as="geometry"/>
                </mxCell>
                <mxCell id="20" value="5" style="rounded=0;whiteSpace=wrap;html=1;fontSize=20;" parent="1" vertex="1">
                    <mxGeometry x="337" y="637" width="60" height="60" as="geometry"/>
                </mxCell>
                <mxCell id="21" value="9" style="rounded=0;whiteSpace=wrap;html=1;fontSize=20;" parent="1" vertex="1">
                    <mxGeometry x="397" y="637" width="60" height="60" as="geometry"/>
                </mxCell>
                <mxCell id="22" value="" style="endArrow=none;html=1;fontSize=20;" parent="1" edge="1">
                    <mxGeometry width="50" height="50" relative="1" as="geometry">
                        <mxPoint x="161" y="722" as="sourcePoint"/>
                        <mxPoint x="275" y="722" as="targetPoint"/>
                    </mxGeometry>
                </mxCell>
                <mxCell id="23" value="Left" style="edgeLabel;html=1;align=center;verticalAlign=middle;resizable=0;points=[];fontSize=20;" parent="22" vertex="1" connectable="0">
                    <mxGeometry x="0.0234" y="1" relative="1" as="geometry">
                        <mxPoint as="offset"/>
                    </mxGeometry>
                </mxCell>
                <mxCell id="24" value="" style="endArrow=none;html=1;fontSize=20;" parent="1" edge="1">
                    <mxGeometry width="50" height="50" relative="1" as="geometry">
                        <mxPoint x="343" y="723" as="sourcePoint"/>
                        <mxPoint x="457" y="723" as="targetPoint"/>
                    </mxGeometry>
                </mxCell>
                <mxCell id="25" value="Right" style="edgeLabel;html=1;align=center;verticalAlign=middle;resizable=0;points=[];fontSize=20;" parent="24" vertex="1" connectable="0">
                    <mxGeometry x="0.0234" y="1" relative="1" as="geometry">
                        <mxPoint as="offset"/>
                    </mxGeometry>
                </mxCell>
                <mxCell id="26" value="start" style="text;html=1;strokeColor=none;fillColor=none;align=center;verticalAlign=middle;whiteSpace=wrap;rounded=0;fontSize=20;" parent="1" vertex="1">
                    <mxGeometry x="156" y="587" width="60" height="30" as="geometry"/>
                </mxCell>
                <mxCell id="27" value="end" style="text;html=1;strokeColor=none;fillColor=none;align=center;verticalAlign=middle;whiteSpace=wrap;rounded=0;fontSize=20;" parent="1" vertex="1">
                    <mxGeometry x="397" y="587" width="60" height="30" as="geometry"/>
                </mxCell>
                <mxCell id="28" value="-10" style="rounded=0;whiteSpace=wrap;html=1;fontSize=20;fillColor=#fff2cc;strokeColor=#d6b656;" parent="1" vertex="1">
                    <mxGeometry x="154" y="867" width="60" height="60" as="geometry"/>
                </mxCell>
                <mxCell id="29" value="-3" style="rounded=0;whiteSpace=wrap;html=1;fontSize=20;" parent="1" vertex="1">
                    <mxGeometry x="214" y="867" width="60" height="60" as="geometry"/>
                </mxCell>
                <mxCell id="32" value="start" style="text;html=1;strokeColor=none;fillColor=none;align=center;verticalAlign=middle;whiteSpace=wrap;rounded=0;fontSize=20;" parent="1" vertex="1">
                    <mxGeometry x="153" y="817" width="60" height="30" as="geometry"/>
                </mxCell>
                <mxCell id="33" value="end" style="text;html=1;strokeColor=none;fillColor=none;align=center;verticalAlign=middle;whiteSpace=wrap;rounded=0;fontSize=20;" parent="1" vertex="1">
                    <mxGeometry x="216" y="817" width="60" height="30" as="geometry"/>
                </mxCell>
                <mxCell id="34" value="mid" style="text;html=1;strokeColor=none;fillColor=none;align=center;verticalAlign=middle;whiteSpace=wrap;rounded=0;fontSize=20;" parent="1" vertex="1">
                    <mxGeometry x="157" y="938" width="60" height="30" as="geometry"/>
                </mxCell>
                <mxCell id="35" value="mid" style="text;html=1;strokeColor=none;fillColor=none;align=center;verticalAlign=middle;whiteSpace=wrap;rounded=0;fontSize=20;" parent="1" vertex="1">
                    <mxGeometry x="271" y="598" width="60" height="30" as="geometry"/>
                </mxCell>
                <mxCell id="36" style="edgeStyle=none;html=1;fontSize=21;" parent="1" source="37" target="38" edge="1">
                    <mxGeometry relative="1" as="geometry"/>
                </mxCell>
                <mxCell id="37" value="-3" style="ellipse;whiteSpace=wrap;html=1;aspect=fixed;strokeWidth=2;fontSize=21;" parent="1" vertex="1">
                    <mxGeometry x="344" y="857" width="80" height="80" as="geometry"/>
                </mxCell>
                <mxCell id="38" value="-10" style="ellipse;whiteSpace=wrap;html=1;aspect=fixed;strokeWidth=2;fontSize=21;" parent="1" vertex="1">
                    <mxGeometry x="404" y="958" width="80" height="80" as="geometry"/>
                </mxCell>
                <mxCell id="50" style="edgeStyle=none;html=1;entryX=0.5;entryY=0;entryDx=0;entryDy=0;fontSize=20;" parent="1" source="39" target="48" edge="1">
                    <mxGeometry relative="1" as="geometry"/>
                </mxCell>
                <mxCell id="103" style="edgeStyle=none;html=1;entryX=0.5;entryY=0;entryDx=0;entryDy=0;fontSize=20;fontColor=#FF3333;" parent="1" source="39" target="37" edge="1">
                    <mxGeometry relative="1" as="geometry"/>
                </mxCell>
                <mxCell id="39" value="0" style="ellipse;whiteSpace=wrap;html=1;aspect=fixed;strokeWidth=2;fontSize=21;" parent="1" vertex="1">
                    <mxGeometry x="530" y="621" width="80" height="80" as="geometry"/>
                </mxCell>
                <mxCell id="40" value="5" style="rounded=0;whiteSpace=wrap;html=1;fontSize=20;fillColor=#fff2cc;strokeColor=#d6b656;" parent="1" vertex="1">
                    <mxGeometry x="670" y="867" width="60" height="60" as="geometry"/>
                </mxCell>
                <mxCell id="41" value="9" style="rounded=0;whiteSpace=wrap;html=1;fontSize=20;" parent="1" vertex="1">
                    <mxGeometry x="730" y="867" width="60" height="60" as="geometry"/>
                </mxCell>
                <mxCell id="44" value="start" style="text;html=1;strokeColor=none;fillColor=none;align=center;verticalAlign=middle;whiteSpace=wrap;rounded=0;fontSize=20;" parent="1" vertex="1">
                    <mxGeometry x="670" y="831" width="60" height="30" as="geometry"/>
                </mxCell>
                <mxCell id="45" value="end" style="text;html=1;strokeColor=none;fillColor=none;align=center;verticalAlign=middle;whiteSpace=wrap;rounded=0;fontSize=20;" parent="1" vertex="1">
                    <mxGeometry x="733" y="831" width="60" height="30" as="geometry"/>
                </mxCell>
                <mxCell id="46" value="mid" style="text;html=1;strokeColor=none;fillColor=none;align=center;verticalAlign=middle;whiteSpace=wrap;rounded=0;fontSize=20;" parent="1" vertex="1">
                    <mxGeometry x="670" y="941" width="60" height="30" as="geometry"/>
                </mxCell>
                <mxCell id="47" style="edgeStyle=none;html=1;fontSize=21;" parent="1" source="48" target="49" edge="1">
                    <mxGeometry relative="1" as="geometry"/>
                </mxCell>
                <mxCell id="48" value="5" style="ellipse;whiteSpace=wrap;html=1;aspect=fixed;strokeWidth=2;fontSize=21;" parent="1" vertex="1">
                    <mxGeometry x="870" y="861" width="80" height="80" as="geometry"/>
                </mxCell>
                <mxCell id="49" value="9" style="ellipse;whiteSpace=wrap;html=1;aspect=fixed;strokeWidth=2;fontSize=21;" parent="1" vertex="1">
                    <mxGeometry x="930" y="962" width="80" height="80" as="geometry"/>
                </mxCell>
                <mxCell id="73" value="" style="group" parent="1" vertex="1" connectable="0">
                    <mxGeometry x="405" y="1350" width="301" height="154" as="geometry"/>
                </mxCell>
                <mxCell id="51" value="-10" style="rounded=0;whiteSpace=wrap;html=1;fontSize=20;" parent="73" vertex="1">
                    <mxGeometry x="1" y="50" width="60" height="60" as="geometry"/>
                </mxCell>
                <mxCell id="52" value="-3" style="rounded=0;whiteSpace=wrap;html=1;fontSize=20;" parent="73" vertex="1">
                    <mxGeometry x="61" y="50" width="60" height="60" as="geometry"/>
                </mxCell>
                <mxCell id="53" value="0" style="rounded=0;whiteSpace=wrap;html=1;fontSize=20;fillColor=#fff2cc;strokeColor=#d6b656;" parent="73" vertex="1">
                    <mxGeometry x="121" y="50" width="60" height="60" as="geometry"/>
                </mxCell>
                <mxCell id="54" value="5" style="rounded=0;whiteSpace=wrap;html=1;fontSize=20;" parent="73" vertex="1">
                    <mxGeometry x="181" y="50" width="60" height="60" as="geometry"/>
                </mxCell>
                <mxCell id="55" value="9" style="rounded=0;whiteSpace=wrap;html=1;fontSize=20;" parent="73" vertex="1">
                    <mxGeometry x="241" y="50" width="60" height="60" as="geometry"/>
                </mxCell>
                <mxCell id="60" value="start" style="text;html=1;strokeColor=none;fillColor=none;align=center;verticalAlign=middle;whiteSpace=wrap;rounded=0;fontSize=20;" parent="73" vertex="1">
                    <mxGeometry width="60" height="30" as="geometry"/>
                </mxCell>
                <mxCell id="61" value="end" style="text;html=1;strokeColor=none;fillColor=none;align=center;verticalAlign=middle;whiteSpace=wrap;rounded=0;fontSize=20;" parent="73" vertex="1">
                    <mxGeometry x="241" width="60" height="30" as="geometry"/>
                </mxCell>
                <mxCell id="62" value="mid" style="text;html=1;strokeColor=none;fillColor=none;align=center;verticalAlign=middle;whiteSpace=wrap;rounded=0;fontSize=20;" parent="73" vertex="1">
                    <mxGeometry x="115" y="11" width="60" height="30" as="geometry"/>
                </mxCell>
                <mxCell id="63" value="f( 0, 4)" style="text;html=1;strokeColor=none;fillColor=none;align=center;verticalAlign=middle;whiteSpace=wrap;rounded=0;fontSize=20;" parent="73" vertex="1">
                    <mxGeometry x="13" y="124" width="250" height="30" as="geometry"/>
                </mxCell>
                <mxCell id="74" value="" style="group" parent="1" vertex="1" connectable="0">
                    <mxGeometry x="179" y="1562" width="301" height="166" as="geometry"/>
                </mxCell>
                <mxCell id="75" value="-10" style="rounded=0;whiteSpace=wrap;html=1;fontSize=20;fillColor=#fff2cc;strokeColor=#d6b656;" parent="74" vertex="1">
                    <mxGeometry x="1" y="50" width="60" height="60" as="geometry"/>
                </mxCell>
                <mxCell id="76" value="-3" style="rounded=0;whiteSpace=wrap;html=1;fontSize=20;" parent="74" vertex="1">
                    <mxGeometry x="61" y="50" width="60" height="60" as="geometry"/>
                </mxCell>
                <mxCell id="80" value="start" style="text;html=1;strokeColor=none;fillColor=none;align=center;verticalAlign=middle;whiteSpace=wrap;rounded=0;fontSize=20;" parent="74" vertex="1">
                    <mxGeometry width="60" height="30" as="geometry"/>
                </mxCell>
                <mxCell id="83" value="f( 0, 1)" style="text;html=1;strokeColor=none;fillColor=none;align=center;verticalAlign=middle;whiteSpace=wrap;rounded=0;fontSize=20;" parent="74" vertex="1">
                    <mxGeometry x="-77" y="120" width="250" height="30" as="geometry"/>
                </mxCell>
                <mxCell id="84" value="end" style="text;html=1;strokeColor=none;fillColor=none;align=center;verticalAlign=middle;whiteSpace=wrap;rounded=0;fontSize=20;" parent="74" vertex="1">
                    <mxGeometry x="61" y="2" width="60" height="30" as="geometry"/>
                </mxCell>
                <mxCell id="95" value="start" style="text;html=1;strokeColor=none;fillColor=none;align=center;verticalAlign=middle;whiteSpace=wrap;rounded=0;fontSize=20;" parent="74" vertex="1">
                    <mxGeometry x="214" y="136" width="60" height="30" as="geometry"/>
                </mxCell>
                <mxCell id="82" value="mid" style="text;html=1;strokeColor=none;fillColor=none;align=center;verticalAlign=middle;whiteSpace=wrap;rounded=0;fontSize=20;" parent="1" vertex="1">
                    <mxGeometry x="179" y="1532" width="60" height="30" as="geometry"/>
                </mxCell>
                <mxCell id="86" value="" style="group" parent="1" vertex="1" connectable="0">
                    <mxGeometry x="58.5" y="1756" width="301" height="154" as="geometry"/>
                </mxCell>
                <mxCell id="90" value="&lt;font color=&quot;#ff3333&quot;&gt;f( 0, -1)&lt;/font&gt;" style="text;html=1;strokeColor=none;fillColor=none;align=center;verticalAlign=middle;whiteSpace=wrap;rounded=0;fontSize=20;" parent="86" vertex="1">
                    <mxGeometry x="-77" y="120" width="250" height="30" as="geometry"/>
                </mxCell>
                <mxCell id="98" value="null" style="ellipse;whiteSpace=wrap;html=1;aspect=fixed;fontSize=20;strokeWidth=2;" parent="86" vertex="1">
                    <mxGeometry x="14.5" y="35" width="80" height="80" as="geometry"/>
                </mxCell>
                <mxCell id="94" value="-3" style="rounded=0;whiteSpace=wrap;html=1;fontSize=20;fillColor=#fff2cc;strokeColor=#d6b656;" parent="1" vertex="1">
                    <mxGeometry x="392" y="1804" width="60" height="60" as="geometry"/>
                </mxCell>
                <mxCell id="96" value="end" style="text;html=1;strokeColor=none;fillColor=none;align=center;verticalAlign=middle;whiteSpace=wrap;rounded=0;fontSize=20;" parent="1" vertex="1">
                    <mxGeometry x="392" y="1756" width="60" height="30" as="geometry"/>
                </mxCell>
                <mxCell id="97" value="mid" style="text;html=1;strokeColor=none;fillColor=none;align=center;verticalAlign=middle;whiteSpace=wrap;rounded=0;fontSize=20;" parent="1" vertex="1">
                    <mxGeometry x="392" y="1731" width="60" height="30" as="geometry"/>
                </mxCell>
                <mxCell id="100" style="edgeStyle=none;html=1;fontSize=20;fontColor=#FF3333;" parent="1" source="63" edge="1">
                    <mxGeometry relative="1" as="geometry">
                        <mxPoint x="262" y="1467" as="targetPoint"/>
                    </mxGeometry>
                </mxCell>
                <mxCell id="101" style="edgeStyle=none;html=1;fontSize=20;fontColor=#FF3333;" parent="1" source="83" edge="1">
                    <mxGeometry relative="1" as="geometry">
                        <mxPoint x="139.35049777560744" y="1781.272450764974" as="targetPoint"/>
                    </mxGeometry>
                </mxCell>
                <mxCell id="102" style="edgeStyle=none;html=1;fontSize=20;fontColor=#FF3333;" parent="1" source="76" edge="1">
                    <mxGeometry relative="1" as="geometry">
                        <mxPoint x="386.0171644422744" y="1799.0502285427515" as="targetPoint"/>
                    </mxGeometry>
                </mxCell>
                <mxCell id="104" value="&lt;font color=&quot;#000000&quot;&gt;base case to create an null node ; left pointer crosses right pointer&lt;/font&gt;" style="text;html=1;strokeColor=none;fillColor=none;align=left;verticalAlign=middle;whiteSpace=wrap;rounded=0;fontSize=20;fontColor=#FF3333;" parent="1" vertex="1">
                    <mxGeometry x="-21" y="1934" width="242" height="30" as="geometry"/>
                </mxCell>
                <mxCell id="108" value="base case to create leaf node" style="text;html=1;strokeColor=none;fillColor=none;align=center;verticalAlign=middle;whiteSpace=wrap;rounded=0;fontSize=20;fontColor=#000000;" parent="1" vertex="1">
                    <mxGeometry x="346" y="1889" width="316" height="30" as="geometry"/>
                </mxCell>
                <mxCell id="109" value="Text" style="text;html=1;strokeColor=none;fillColor=none;align=center;verticalAlign=middle;whiteSpace=wrap;rounded=0;fontSize=20;fontColor=#000000;" parent="1" vertex="1">
                    <mxGeometry x="383" y="1590" width="60" height="30" as="geometry"/>
                </mxCell>
                <mxCell id="110" value="start and end points to the same node; w e can create a single node" style="text;html=1;strokeColor=none;fillColor=none;align=left;verticalAlign=middle;whiteSpace=wrap;rounded=0;fontSize=20;fontColor=#000000;" parent="1" vertex="1">
                    <mxGeometry x="359.5" y="1944" width="329" height="30" as="geometry"/>
                </mxCell>
            </root>
        </mxGraphModel>
    </diagram>
    <diagram id="YWQRLuM0WBaG2P5A6pFJ" name="Page-2">
        <mxGraphModel dx="665" dy="465" grid="1" gridSize="10" guides="1" tooltips="1" connect="1" arrows="1" fold="1" page="1" pageScale="1" pageWidth="827" pageHeight="1169" math="0" shadow="0">
            <root>
                <mxCell id="3f7Z6FQ49Bwli9TMrwcQ-0"/>
                <mxCell id="3f7Z6FQ49Bwli9TMrwcQ-1" parent="3f7Z6FQ49Bwli9TMrwcQ-0"/>
                <mxCell id="3f7Z6FQ49Bwli9TMrwcQ-11" style="edgeStyle=none;html=1;entryX=0.5;entryY=0;entryDx=0;entryDy=0;" edge="1" parent="3f7Z6FQ49Bwli9TMrwcQ-1" source="3f7Z6FQ49Bwli9TMrwcQ-2" target="3f7Z6FQ49Bwli9TMrwcQ-3">
                    <mxGeometry relative="1" as="geometry"/>
                </mxCell>
                <mxCell id="3f7Z6FQ49Bwli9TMrwcQ-12" style="edgeStyle=none;html=1;entryX=0.5;entryY=0;entryDx=0;entryDy=0;" edge="1" parent="3f7Z6FQ49Bwli9TMrwcQ-1" source="3f7Z6FQ49Bwli9TMrwcQ-2" target="3f7Z6FQ49Bwli9TMrwcQ-4">
                    <mxGeometry relative="1" as="geometry"/>
                </mxCell>
                <mxCell id="3f7Z6FQ49Bwli9TMrwcQ-2" value="1" style="ellipse;whiteSpace=wrap;html=1;aspect=fixed;" vertex="1" parent="3f7Z6FQ49Bwli9TMrwcQ-1">
                    <mxGeometry x="360" y="40" width="40" height="40" as="geometry"/>
                </mxCell>
                <mxCell id="3f7Z6FQ49Bwli9TMrwcQ-13" style="edgeStyle=none;html=1;entryX=0.5;entryY=0;entryDx=0;entryDy=0;" edge="1" parent="3f7Z6FQ49Bwli9TMrwcQ-1" source="3f7Z6FQ49Bwli9TMrwcQ-3" target="3f7Z6FQ49Bwli9TMrwcQ-5">
                    <mxGeometry relative="1" as="geometry"/>
                </mxCell>
                <mxCell id="3f7Z6FQ49Bwli9TMrwcQ-14" style="edgeStyle=none;html=1;entryX=0.5;entryY=0;entryDx=0;entryDy=0;" edge="1" parent="3f7Z6FQ49Bwli9TMrwcQ-1" source="3f7Z6FQ49Bwli9TMrwcQ-3" target="3f7Z6FQ49Bwli9TMrwcQ-6">
                    <mxGeometry relative="1" as="geometry"/>
                </mxCell>
                <mxCell id="3f7Z6FQ49Bwli9TMrwcQ-3" value="2" style="ellipse;whiteSpace=wrap;html=1;aspect=fixed;" vertex="1" parent="3f7Z6FQ49Bwli9TMrwcQ-1">
                    <mxGeometry x="280" y="120" width="40" height="40" as="geometry"/>
                </mxCell>
                <mxCell id="3f7Z6FQ49Bwli9TMrwcQ-17" style="edgeStyle=none;html=1;entryX=0.5;entryY=0;entryDx=0;entryDy=0;" edge="1" parent="3f7Z6FQ49Bwli9TMrwcQ-1" source="3f7Z6FQ49Bwli9TMrwcQ-4" target="3f7Z6FQ49Bwli9TMrwcQ-9">
                    <mxGeometry relative="1" as="geometry">
                        <mxPoint x="486" y="190" as="targetPoint"/>
                    </mxGeometry>
                </mxCell>
                <mxCell id="3f7Z6FQ49Bwli9TMrwcQ-18" style="edgeStyle=none;html=1;entryX=0.5;entryY=0;entryDx=0;entryDy=0;" edge="1" parent="3f7Z6FQ49Bwli9TMrwcQ-1" source="3f7Z6FQ49Bwli9TMrwcQ-4" target="3f7Z6FQ49Bwli9TMrwcQ-10">
                    <mxGeometry relative="1" as="geometry"/>
                </mxCell>
                <mxCell id="3f7Z6FQ49Bwli9TMrwcQ-4" value="3" style="ellipse;whiteSpace=wrap;html=1;aspect=fixed;" vertex="1" parent="3f7Z6FQ49Bwli9TMrwcQ-1">
                    <mxGeometry x="476" y="120" width="40" height="40" as="geometry"/>
                </mxCell>
                <mxCell id="3f7Z6FQ49Bwli9TMrwcQ-15" style="edgeStyle=none;html=1;entryX=0.5;entryY=0;entryDx=0;entryDy=0;" edge="1" parent="3f7Z6FQ49Bwli9TMrwcQ-1" source="3f7Z6FQ49Bwli9TMrwcQ-5" target="3f7Z6FQ49Bwli9TMrwcQ-8">
                    <mxGeometry relative="1" as="geometry"/>
                </mxCell>
                <mxCell id="3f7Z6FQ49Bwli9TMrwcQ-5" value="6" style="ellipse;whiteSpace=wrap;html=1;aspect=fixed;" vertex="1" parent="3f7Z6FQ49Bwli9TMrwcQ-1">
                    <mxGeometry x="210" y="200" width="40" height="40" as="geometry"/>
                </mxCell>
                <mxCell id="3f7Z6FQ49Bwli9TMrwcQ-16" style="edgeStyle=none;html=1;entryX=0.5;entryY=0;entryDx=0;entryDy=0;" edge="1" parent="3f7Z6FQ49Bwli9TMrwcQ-1" source="3f7Z6FQ49Bwli9TMrwcQ-6" target="3f7Z6FQ49Bwli9TMrwcQ-7">
                    <mxGeometry relative="1" as="geometry"/>
                </mxCell>
                <mxCell id="3f7Z6FQ49Bwli9TMrwcQ-6" value="7" style="ellipse;whiteSpace=wrap;html=1;aspect=fixed;" vertex="1" parent="3f7Z6FQ49Bwli9TMrwcQ-1">
                    <mxGeometry x="344" y="210" width="40" height="40" as="geometry"/>
                </mxCell>
                <mxCell id="3f7Z6FQ49Bwli9TMrwcQ-7" value="8" style="ellipse;whiteSpace=wrap;html=1;aspect=fixed;" vertex="1" parent="3f7Z6FQ49Bwli9TMrwcQ-1">
                    <mxGeometry x="374" y="290" width="40" height="40" as="geometry"/>
                </mxCell>
                <mxCell id="3f7Z6FQ49Bwli9TMrwcQ-8" value="9" style="ellipse;whiteSpace=wrap;html=1;aspect=fixed;" vertex="1" parent="3f7Z6FQ49Bwli9TMrwcQ-1">
                    <mxGeometry x="186" y="280" width="40" height="40" as="geometry"/>
                </mxCell>
                <mxCell id="3f7Z6FQ49Bwli9TMrwcQ-9" value="4" style="ellipse;whiteSpace=wrap;html=1;aspect=fixed;" vertex="1" parent="3f7Z6FQ49Bwli9TMrwcQ-1">
                    <mxGeometry x="480" y="210" width="40" height="40" as="geometry"/>
                </mxCell>
                <mxCell id="3f7Z6FQ49Bwli9TMrwcQ-10" value="5" style="ellipse;whiteSpace=wrap;html=1;aspect=fixed;" vertex="1" parent="3f7Z6FQ49Bwli9TMrwcQ-1">
                    <mxGeometry x="620" y="210" width="40" height="40" as="geometry"/>
                </mxCell>
                <mxCell id="3f7Z6FQ49Bwli9TMrwcQ-37" style="edgeStyle=none;html=1;entryX=0.5;entryY=0;entryDx=0;entryDy=0;" edge="1" parent="3f7Z6FQ49Bwli9TMrwcQ-1" source="3f7Z6FQ49Bwli9TMrwcQ-19" target="3f7Z6FQ49Bwli9TMrwcQ-20">
                    <mxGeometry relative="1" as="geometry"/>
                </mxCell>
                <mxCell id="3f7Z6FQ49Bwli9TMrwcQ-57" style="edgeStyle=none;html=1;startArrow=classic;startFill=1;endArrow=none;endFill=0;" edge="1" parent="3f7Z6FQ49Bwli9TMrwcQ-1" source="3f7Z6FQ49Bwli9TMrwcQ-19">
                    <mxGeometry relative="1" as="geometry">
                        <mxPoint x="334.9999999999999" y="19.999999999999943" as="targetPoint"/>
                    </mxGeometry>
                </mxCell>
                <mxCell id="3f7Z6FQ49Bwli9TMrwcQ-19" value="1" style="text;html=1;strokeColor=#6c8ebf;fillColor=#dae8fc;align=center;verticalAlign=middle;whiteSpace=wrap;rounded=0;" vertex="1" parent="3f7Z6FQ49Bwli9TMrwcQ-1">
                    <mxGeometry x="320" y="50" width="30" height="20" as="geometry"/>
                </mxCell>
                <mxCell id="3f7Z6FQ49Bwli9TMrwcQ-38" style="edgeStyle=none;html=1;entryX=0.5;entryY=0;entryDx=0;entryDy=0;" edge="1" parent="3f7Z6FQ49Bwli9TMrwcQ-1" source="3f7Z6FQ49Bwli9TMrwcQ-20" target="3f7Z6FQ49Bwli9TMrwcQ-21">
                    <mxGeometry relative="1" as="geometry"/>
                </mxCell>
                <mxCell id="3f7Z6FQ49Bwli9TMrwcQ-20" value="2" style="text;html=1;strokeColor=#6c8ebf;fillColor=#dae8fc;align=center;verticalAlign=middle;whiteSpace=wrap;rounded=0;" vertex="1" parent="3f7Z6FQ49Bwli9TMrwcQ-1">
                    <mxGeometry x="245" y="130" width="30" height="20" as="geometry"/>
                </mxCell>
                <mxCell id="3f7Z6FQ49Bwli9TMrwcQ-39" style="edgeStyle=none;html=1;entryX=0.5;entryY=0;entryDx=0;entryDy=0;" edge="1" parent="3f7Z6FQ49Bwli9TMrwcQ-1" source="3f7Z6FQ49Bwli9TMrwcQ-21" target="3f7Z6FQ49Bwli9TMrwcQ-22">
                    <mxGeometry relative="1" as="geometry"/>
                </mxCell>
                <mxCell id="3f7Z6FQ49Bwli9TMrwcQ-21" value="3" style="text;html=1;strokeColor=#6c8ebf;fillColor=#dae8fc;align=center;verticalAlign=middle;whiteSpace=wrap;rounded=0;" vertex="1" parent="3f7Z6FQ49Bwli9TMrwcQ-1">
                    <mxGeometry x="170" y="220" width="30" height="20" as="geometry"/>
                </mxCell>
                <mxCell id="3f7Z6FQ49Bwli9TMrwcQ-40" style="edgeStyle=none;html=1;" edge="1" parent="3f7Z6FQ49Bwli9TMrwcQ-1" source="3f7Z6FQ49Bwli9TMrwcQ-22" target="3f7Z6FQ49Bwli9TMrwcQ-23">
                    <mxGeometry relative="1" as="geometry">
                        <Array as="points">
                            <mxPoint x="210" y="360"/>
                        </Array>
                    </mxGeometry>
                </mxCell>
                <mxCell id="3f7Z6FQ49Bwli9TMrwcQ-22" value="4" style="text;html=1;strokeColor=#6c8ebf;fillColor=#dae8fc;align=center;verticalAlign=middle;whiteSpace=wrap;rounded=0;" vertex="1" parent="3f7Z6FQ49Bwli9TMrwcQ-1">
                    <mxGeometry x="150" y="290" width="30" height="20" as="geometry"/>
                </mxCell>
                <mxCell id="3f7Z6FQ49Bwli9TMrwcQ-41" style="edgeStyle=none;html=1;entryX=0.25;entryY=1;entryDx=0;entryDy=0;" edge="1" parent="3f7Z6FQ49Bwli9TMrwcQ-1" source="3f7Z6FQ49Bwli9TMrwcQ-23" target="3f7Z6FQ49Bwli9TMrwcQ-24">
                    <mxGeometry relative="1" as="geometry"/>
                </mxCell>
                <mxCell id="3f7Z6FQ49Bwli9TMrwcQ-23" value="5" style="text;html=1;strokeColor=#82b366;fillColor=#d5e8d4;align=center;verticalAlign=middle;whiteSpace=wrap;rounded=0;" vertex="1" parent="3f7Z6FQ49Bwli9TMrwcQ-1">
                    <mxGeometry x="230" y="290" width="30" height="20" as="geometry"/>
                </mxCell>
                <mxCell id="3f7Z6FQ49Bwli9TMrwcQ-42" style="edgeStyle=none;html=1;entryX=0;entryY=0.5;entryDx=0;entryDy=0;" edge="1" parent="3f7Z6FQ49Bwli9TMrwcQ-1" source="3f7Z6FQ49Bwli9TMrwcQ-24" target="3f7Z6FQ49Bwli9TMrwcQ-25">
                    <mxGeometry relative="1" as="geometry"/>
                </mxCell>
                <mxCell id="3f7Z6FQ49Bwli9TMrwcQ-24" value="6" style="text;html=1;strokeColor=#82b366;fillColor=#d5e8d4;align=center;verticalAlign=middle;whiteSpace=wrap;rounded=0;" vertex="1" parent="3f7Z6FQ49Bwli9TMrwcQ-1">
                    <mxGeometry x="255" y="220" width="30" height="20" as="geometry"/>
                </mxCell>
                <mxCell id="3f7Z6FQ49Bwli9TMrwcQ-43" style="edgeStyle=none;html=1;" edge="1" parent="3f7Z6FQ49Bwli9TMrwcQ-1" source="3f7Z6FQ49Bwli9TMrwcQ-25" target="3f7Z6FQ49Bwli9TMrwcQ-26">
                    <mxGeometry relative="1" as="geometry"/>
                </mxCell>
                <mxCell id="3f7Z6FQ49Bwli9TMrwcQ-25" value="7" style="text;html=1;strokeColor=#6c8ebf;fillColor=#dae8fc;align=center;verticalAlign=middle;whiteSpace=wrap;rounded=0;" vertex="1" parent="3f7Z6FQ49Bwli9TMrwcQ-1">
                    <mxGeometry x="314" y="220" width="30" height="20" as="geometry"/>
                </mxCell>
                <mxCell id="3f7Z6FQ49Bwli9TMrwcQ-44" style="edgeStyle=none;html=1;" edge="1" parent="3f7Z6FQ49Bwli9TMrwcQ-1" source="3f7Z6FQ49Bwli9TMrwcQ-26" target="3f7Z6FQ49Bwli9TMrwcQ-27">
                    <mxGeometry relative="1" as="geometry">
                        <Array as="points">
                            <mxPoint x="390" y="360"/>
                        </Array>
                    </mxGeometry>
                </mxCell>
                <mxCell id="3f7Z6FQ49Bwli9TMrwcQ-26" value="8" style="text;html=1;strokeColor=#6c8ebf;fillColor=#dae8fc;align=center;verticalAlign=middle;whiteSpace=wrap;rounded=0;" vertex="1" parent="3f7Z6FQ49Bwli9TMrwcQ-1">
                    <mxGeometry x="335" y="300" width="30" height="20" as="geometry"/>
                </mxCell>
                <mxCell id="3f7Z6FQ49Bwli9TMrwcQ-45" style="edgeStyle=none;html=1;entryX=0.5;entryY=1;entryDx=0;entryDy=0;" edge="1" parent="3f7Z6FQ49Bwli9TMrwcQ-1" source="3f7Z6FQ49Bwli9TMrwcQ-27" target="3f7Z6FQ49Bwli9TMrwcQ-28">
                    <mxGeometry relative="1" as="geometry"/>
                </mxCell>
                <mxCell id="3f7Z6FQ49Bwli9TMrwcQ-27" value="9" style="text;html=1;strokeColor=#82b366;fillColor=#d5e8d4;align=center;verticalAlign=middle;whiteSpace=wrap;rounded=0;" vertex="1" parent="3f7Z6FQ49Bwli9TMrwcQ-1">
                    <mxGeometry x="420" y="300" width="30" height="20" as="geometry"/>
                </mxCell>
                <mxCell id="3f7Z6FQ49Bwli9TMrwcQ-46" style="edgeStyle=none;html=1;entryX=0.5;entryY=1;entryDx=0;entryDy=0;" edge="1" parent="3f7Z6FQ49Bwli9TMrwcQ-1" source="3f7Z6FQ49Bwli9TMrwcQ-28" target="3f7Z6FQ49Bwli9TMrwcQ-29">
                    <mxGeometry relative="1" as="geometry"/>
                </mxCell>
                <mxCell id="3f7Z6FQ49Bwli9TMrwcQ-28" value="10" style="text;html=1;strokeColor=#82b366;fillColor=#d5e8d4;align=center;verticalAlign=middle;whiteSpace=wrap;rounded=0;" vertex="1" parent="3f7Z6FQ49Bwli9TMrwcQ-1">
                    <mxGeometry x="390" y="220" width="30" height="20" as="geometry"/>
                </mxCell>
                <mxCell id="3f7Z6FQ49Bwli9TMrwcQ-47" style="edgeStyle=none;html=1;entryX=0;entryY=0.5;entryDx=0;entryDy=0;" edge="1" parent="3f7Z6FQ49Bwli9TMrwcQ-1" source="3f7Z6FQ49Bwli9TMrwcQ-29" target="3f7Z6FQ49Bwli9TMrwcQ-30">
                    <mxGeometry relative="1" as="geometry"/>
                </mxCell>
                <mxCell id="3f7Z6FQ49Bwli9TMrwcQ-29" value="11" style="text;html=1;strokeColor=#82b366;fillColor=#d5e8d4;align=center;verticalAlign=middle;whiteSpace=wrap;rounded=0;" vertex="1" parent="3f7Z6FQ49Bwli9TMrwcQ-1">
                    <mxGeometry x="330" y="130" width="30" height="20" as="geometry"/>
                </mxCell>
                <mxCell id="3f7Z6FQ49Bwli9TMrwcQ-48" style="edgeStyle=none;html=1;entryX=0.5;entryY=0;entryDx=0;entryDy=0;" edge="1" parent="3f7Z6FQ49Bwli9TMrwcQ-1" source="3f7Z6FQ49Bwli9TMrwcQ-30" target="3f7Z6FQ49Bwli9TMrwcQ-31">
                    <mxGeometry relative="1" as="geometry"/>
                </mxCell>
                <mxCell id="3f7Z6FQ49Bwli9TMrwcQ-30" value="12" style="text;html=1;strokeColor=#6c8ebf;fillColor=#dae8fc;align=center;verticalAlign=middle;whiteSpace=wrap;rounded=0;" vertex="1" parent="3f7Z6FQ49Bwli9TMrwcQ-1">
                    <mxGeometry x="444" y="130" width="30" height="20" as="geometry"/>
                </mxCell>
                <mxCell id="3f7Z6FQ49Bwli9TMrwcQ-49" style="edgeStyle=none;html=1;" edge="1" parent="3f7Z6FQ49Bwli9TMrwcQ-1" source="3f7Z6FQ49Bwli9TMrwcQ-31" target="3f7Z6FQ49Bwli9TMrwcQ-35">
                    <mxGeometry relative="1" as="geometry">
                        <Array as="points">
                            <mxPoint x="500" y="290"/>
                        </Array>
                    </mxGeometry>
                </mxCell>
                <mxCell id="3f7Z6FQ49Bwli9TMrwcQ-31" value="13" style="text;html=1;strokeColor=#6c8ebf;fillColor=#dae8fc;align=center;verticalAlign=middle;whiteSpace=wrap;rounded=0;" vertex="1" parent="3f7Z6FQ49Bwli9TMrwcQ-1">
                    <mxGeometry x="450" y="220" width="30" height="20" as="geometry"/>
                </mxCell>
                <mxCell id="3f7Z6FQ49Bwli9TMrwcQ-51" style="edgeStyle=none;html=1;entryX=0.5;entryY=1;entryDx=0;entryDy=0;" edge="1" parent="3f7Z6FQ49Bwli9TMrwcQ-1" source="3f7Z6FQ49Bwli9TMrwcQ-32" target="3f7Z6FQ49Bwli9TMrwcQ-33">
                    <mxGeometry relative="1" as="geometry">
                        <Array as="points">
                            <mxPoint x="640" y="310"/>
                        </Array>
                    </mxGeometry>
                </mxCell>
                <mxCell id="3f7Z6FQ49Bwli9TMrwcQ-32" value="15" style="text;html=1;strokeColor=#6c8ebf;fillColor=#dae8fc;align=center;verticalAlign=middle;whiteSpace=wrap;rounded=0;" vertex="1" parent="3f7Z6FQ49Bwli9TMrwcQ-1">
                    <mxGeometry x="590" y="220" width="30" height="20" as="geometry"/>
                </mxCell>
                <mxCell id="3f7Z6FQ49Bwli9TMrwcQ-52" style="edgeStyle=none;html=1;exitX=1;exitY=0.5;exitDx=0;exitDy=0;" edge="1" parent="3f7Z6FQ49Bwli9TMrwcQ-1" source="3f7Z6FQ49Bwli9TMrwcQ-33" target="3f7Z6FQ49Bwli9TMrwcQ-36">
                    <mxGeometry relative="1" as="geometry"/>
                </mxCell>
                <mxCell id="3f7Z6FQ49Bwli9TMrwcQ-33" value="16" style="text;html=1;strokeColor=#82b366;fillColor=#d5e8d4;align=center;verticalAlign=middle;whiteSpace=wrap;rounded=0;" vertex="1" parent="3f7Z6FQ49Bwli9TMrwcQ-1">
                    <mxGeometry x="680" y="220" width="30" height="20" as="geometry"/>
                </mxCell>
                <mxCell id="3f7Z6FQ49Bwli9TMrwcQ-58" style="edgeStyle=none;html=1;" edge="1" parent="3f7Z6FQ49Bwli9TMrwcQ-1" source="3f7Z6FQ49Bwli9TMrwcQ-34">
                    <mxGeometry relative="1" as="geometry">
                        <mxPoint x="429" y="9.999999999999943" as="targetPoint"/>
                    </mxGeometry>
                </mxCell>
                <mxCell id="3f7Z6FQ49Bwli9TMrwcQ-34" value="18" style="text;html=1;strokeColor=#6c8ebf;fillColor=#dae8fc;align=center;verticalAlign=middle;whiteSpace=wrap;rounded=0;" vertex="1" parent="3f7Z6FQ49Bwli9TMrwcQ-1">
                    <mxGeometry x="414" y="50" width="30" height="20" as="geometry"/>
                </mxCell>
                <mxCell id="3f7Z6FQ49Bwli9TMrwcQ-50" style="edgeStyle=none;html=1;entryX=0;entryY=0.5;entryDx=0;entryDy=0;" edge="1" parent="3f7Z6FQ49Bwli9TMrwcQ-1" source="3f7Z6FQ49Bwli9TMrwcQ-35" target="3f7Z6FQ49Bwli9TMrwcQ-32">
                    <mxGeometry relative="1" as="geometry"/>
                </mxCell>
                <mxCell id="3f7Z6FQ49Bwli9TMrwcQ-35" value="14" style="text;html=1;strokeColor=#82b366;fillColor=#d5e8d4;align=center;verticalAlign=middle;whiteSpace=wrap;rounded=0;" vertex="1" parent="3f7Z6FQ49Bwli9TMrwcQ-1">
                    <mxGeometry x="520" y="220" width="30" height="20" as="geometry"/>
                </mxCell>
                <mxCell id="3f7Z6FQ49Bwli9TMrwcQ-53" style="edgeStyle=none;html=1;entryX=1;entryY=0.5;entryDx=0;entryDy=0;" edge="1" parent="3f7Z6FQ49Bwli9TMrwcQ-1" source="3f7Z6FQ49Bwli9TMrwcQ-36" target="3f7Z6FQ49Bwli9TMrwcQ-34">
                    <mxGeometry relative="1" as="geometry"/>
                </mxCell>
                <mxCell id="3f7Z6FQ49Bwli9TMrwcQ-36" value="17" style="text;html=1;strokeColor=#82b366;fillColor=#d5e8d4;align=center;verticalAlign=middle;whiteSpace=wrap;rounded=0;" vertex="1" parent="3f7Z6FQ49Bwli9TMrwcQ-1">
                    <mxGeometry x="520" y="130" width="30" height="20" as="geometry"/>
                </mxCell>
                <mxCell id="3f7Z6FQ49Bwli9TMrwcQ-54" value="entry time" style="text;html=1;strokeColor=#6c8ebf;fillColor=#dae8fc;align=center;verticalAlign=middle;whiteSpace=wrap;rounded=0;" vertex="1" parent="3f7Z6FQ49Bwli9TMrwcQ-1">
                    <mxGeometry x="200" y="60" width="70" height="20" as="geometry"/>
                </mxCell>
                <mxCell id="3f7Z6FQ49Bwli9TMrwcQ-55" value="exit time" style="text;html=1;strokeColor=#82b366;fillColor=#d5e8d4;align=center;verticalAlign=middle;whiteSpace=wrap;rounded=0;" vertex="1" parent="3f7Z6FQ49Bwli9TMrwcQ-1">
                    <mxGeometry x="200" y="90" width="70" height="20" as="geometry"/>
                </mxCell>
            </root>
        </mxGraphModel>
    </diagram>
</mxfile>